<?xml version="1.0" standalone="no"?>
<!DOCTYPE svg PUBLIC "-//W3C//DTD SVG 20010904//EN"
 "http://www.w3.org/TR/2001/REC-SVG-20010904/DTD/svg10.dtd">
<svg version="1.0" xmlns="http://www.w3.org/2000/svg"
 width="1100.000000pt" height="1100.000000pt" viewBox="0 0 1100.000000 1100.000000"
 preserveAspectRatio="xMidYMid meet">
<metadata>
Created by potrace 1.14, written by Peter Selinger 2001-2017
</metadata>
<g transform="translate(0.000000,1100.000000) scale(0.100000,-0.100000)"
fill="#000000" stroke="none">
<path d="M5478 9599 c-16 -4 -28 -5 -28 -2 0 2 -12 -4 -27 -15 -16 -10 -64
-38 -108 -62 -44 -24 -89 -52 -99 -62 -11 -10 -24 -18 -28 -18 -14 0 -217
-149 -313 -229 -92 -78 -314 -294 -376 -367 -69 -82 -183 -233 -190 -252 -3
-6 -74 8 -179 34 -96 24 -184 44 -195 44 -31 0 -83 -36 -105 -72 -11 -18 -32
-62 -47 -98 -15 -36 -31 -68 -36 -71 -5 -3 -8 -8 -7 -10 2 -6 -13 -43 -70
-169 -29 -63 -61 -135 -72 -160 -11 -25 -28 -63 -38 -85 -80 -173 -100 -220
-100 -231 0 -8 -5 -14 -10 -14 -6 0 -9 -3 -8 -7 1 -9 -3 -19 -72 -173 -29 -63
-53 -119 -54 -125 -2 -5 -14 -35 -28 -65 -14 -30 -47 -104 -73 -165 -26 -60
-50 -113 -54 -117 -3 -3 -24 0 -46 8 -22 8 -50 17 -62 20 -12 2 -35 9 -50 15
-16 6 -35 12 -43 14 -8 2 -79 24 -157 50 -184 60 -228 65 -282 34 -43 -24 -78
-69 -87 -111 -2 -13 -6 -173 -9 -355 -2 -183 -6 -337 -9 -342 -4 -5 -2 -12 3
-15 5 -4 6 -19 3 -34 -4 -15 -7 -303 -7 -640 l0 -612 -30 6 c-16 3 -65 14
-109 25 -43 10 -89 19 -102 19 -12 0 -26 5 -29 10 -4 6 -10 8 -15 5 -4 -2 -27
1 -51 8 -71 21 -131 11 -179 -29 -71 -60 -81 -137 -32 -239 11 -22 26 -56 35
-75 55 -123 103 -229 149 -330 17 -36 48 -105 70 -155 43 -97 56 -127 113
-250 38 -83 57 -126 60 -135 0 -3 11 -27 24 -55 22 -47 35 -76 92 -200 13 -27
24 -52 24 -55 1 -3 15 -34 32 -70 29 -62 48 -105 92 -203 112 -248 259 -573
279 -617 14 -30 26 -58 26 -61 1 -3 11 -25 23 -50 12 -24 35 -74 52 -111 38
-83 65 -108 155 -144 39 -16 73 -31 76 -35 3 -3 14 -8 25 -12 23 -6 315 -132
412 -177 36 -17 67 -30 69 -30 3 0 31 -12 62 -26 31 -14 71 -32 87 -39 100
-43 497 -216 530 -231 22 -9 42 -18 45 -18 3 -1 15 -7 26 -14 12 -6 24 -8 28
-5 3 3 6 2 6 -3 0 -6 17 -16 38 -23 31 -12 256 -108 327 -141 88 -40 160 -70
169 -70 7 0 18 -6 25 -13 6 -6 15 -12 19 -13 8 -1 46 -16 105 -43 23 -10 71
-31 107 -46 36 -15 85 -36 110 -47 148 -66 144 -66 315 9 55 24 118 52 140 62
22 11 56 26 75 34 19 8 62 27 95 42 68 30 108 48 115 50 3 1 28 12 55 25 28
13 52 24 55 25 13 4 66 27 118 51 31 14 73 33 92 41 19 8 52 23 73 34 22 10
45 19 53 19 8 0 14 5 14 10 0 6 6 10 14 10 11 0 99 38 291 125 17 7 50 22 75
33 25 11 65 29 90 40 25 11 144 64 265 117 210 93 255 113 370 165 28 12 86
38 130 57 44 20 96 42 115 51 19 9 38 15 43 14 4 -1 7 2 7 8 0 5 6 10 13 10
22 0 65 55 91 117 13 32 37 85 52 118 15 33 28 62 29 65 0 3 11 28 24 55 13
28 25 55 27 60 1 6 12 33 25 60 13 28 22 53 21 58 -1 4 2 7 8 7 5 0 10 4 10 9
0 5 5 22 12 38 6 15 12 30 13 33 2 7 41 94 65 145 10 22 25 56 33 75 8 19 29
65 46 102 17 37 31 69 31 72 0 3 18 44 40 91 22 47 40 88 40 90 0 2 18 43 40
90 22 47 40 88 40 89 0 2 12 30 27 62 15 33 28 61 29 64 1 7 18 45 54 124 17
39 37 84 45 100 21 47 54 126 55 131 0 3 14 31 30 64 17 33 30 62 30 66 0 3
18 44 40 91 22 47 40 87 40 89 0 2 10 25 22 52 12 26 22 50 23 53 1 3 12 28
25 55 13 28 24 52 25 55 1 3 7 19 14 35 7 17 12 31 12 32 0 1 11 24 24 50 61
128 -33 240 -170 201 -16 -5 -73 -18 -125 -29 -119 -27 -112 -25 -130 -31 -42
-15 -181 -44 -184 -39 -2 3 -2 58 -1 121 2 63 6 248 10 410 6 299 8 401 20
980 4 179 8 368 9 421 2 116 -5 146 -43 183 -37 36 -93 44 -157 22 -27 -8 -58
-17 -69 -19 -11 -1 -24 -5 -30 -8 -5 -4 -23 -10 -40 -14 -16 -5 -36 -10 -42
-12 -7 -1 -19 -5 -25 -6 -7 -2 -26 -7 -43 -11 -16 -4 -37 -10 -45 -12 -8 -3
-17 -6 -20 -6 -3 -1 -25 -7 -49 -15 -24 -7 -45 -12 -47 -11 -1 2 -4 21 -7 43
-5 44 -33 110 -59 139 -10 10 -15 22 -13 26 2 4 -89 193 -202 421 -114 228
-207 416 -208 419 0 3 -7 16 -15 30 -8 14 -62 122 -121 241 -118 239 -142 269
-222 277 -41 3 -161 -22 -183 -39 -6 -5 -14 -6 -17 -3 -3 3 -12 2 -19 -2 -7
-5 -17 -9 -23 -11 -5 -1 -41 -11 -80 -23 -38 -11 -77 -22 -85 -25 -80 -23 -72
-25 -107 27 -18 26 -33 52 -33 57 0 6 -6 14 -13 18 -7 4 -25 28 -41 53 -25 39
-112 156 -126 170 -3 3 -32 37 -65 75 -76 88 -212 225 -290 290 -33 28 -65 55
-71 60 -32 29 -182 137 -244 174 -140 86 -161 94 -212 80z m98 -369 c35 -22
68 -40 73 -40 5 0 11 -3 13 -8 2 -4 27 -23 56 -41 47 -30 86 -59 194 -142 63
-48 214 -184 268 -240 115 -120 223 -240 218 -244 -5 -5 -363 -122 -397 -130
-17 -4 -31 -11 -31 -17 0 -6 -3 -9 -6 -6 -3 4 -56 -12 -117 -34 -62 -22 -125
-44 -142 -50 -16 -6 -36 -15 -42 -21 -7 -5 -13 -7 -13 -3 0 3 -25 -5 -56 -19
-76 -34 -77 -34 -183 12 -18 9 -41 17 -50 18 -9 2 -17 4 -18 5 -2 2 -6 3 -10
5 -5 1 -16 5 -25 9 -9 4 -22 9 -30 10 -7 2 -20 6 -28 9 -34 14 -246 81 -265
84 -11 2 -27 6 -35 10 -8 3 -18 7 -22 8 -5 2 -9 3 -10 5 -2 1 -11 3 -20 5 -26
5 -160 45 -186 56 -22 9 -23 10 -5 34 10 13 21 25 26 25 4 0 7 5 7 11 0 7 8
19 18 28 9 9 30 34 45 56 15 22 41 56 58 75 16 19 51 59 77 89 124 144 297
296 477 420 49 33 91 61 93 61 3 0 33 -18 68 -40z m-1511 -877 c32 -7 57 -14
114 -32 35 -12 74 -23 85 -25 12 -3 40 -11 64 -20 23 -8 43 -15 45 -14 3 1
257 -80 277 -89 8 -3 20 -7 25 -8 43 -8 75 -19 75 -27 0 -5 4 -7 9 -3 5 3 32
-4 60 -15 28 -11 61 -22 73 -24 13 -3 61 -19 108 -36 47 -17 91 -33 99 -36 8
-2 -59 -42 -150 -88 -90 -46 -211 -107 -269 -136 -58 -29 -108 -58 -112 -64
-4 -6 -8 -8 -8 -4 0 4 -23 -6 -50 -22 -28 -17 -57 -30 -65 -30 -7 0 -15 -4
-17 -8 -1 -5 -52 -34 -113 -66 -60 -32 -140 -76 -177 -97 -36 -22 -70 -39 -73
-39 -4 0 -21 -10 -38 -22 -17 -12 -36 -23 -42 -24 -5 -1 -48 -24 -96 -52 -79
-46 -169 -97 -229 -129 -14 -8 -41 -24 -61 -36 -77 -47 -237 -137 -244 -137
-8 0 27 64 38 68 4 2 7 12 7 22 0 10 3 20 8 22 4 2 25 40 47 86 21 45 43 82
49 82 5 0 6 3 3 7 -4 3 -3 11 2 17 4 6 68 128 141 271 73 143 152 297 176 343
25 45 42 82 39 82 -3 0 5 17 18 38 13 20 47 85 76 144 51 104 65 122 86 109 6
-3 15 -6 20 -8z m2949 -119 c22 -49 43 -91 46 -94 3 -3 6 -11 8 -18 1 -8 17
-44 36 -80 18 -37 33 -69 34 -72 0 -3 9 -23 18 -45 10 -22 18 -42 19 -45 1 -3
17 -36 34 -75 18 -38 42 -90 53 -115 31 -68 84 -184 138 -295 26 -55 47 -101
46 -102 -1 -2 -29 11 -62 29 -125 66 -670 336 -691 343 -13 3 -23 11 -23 16 0
5 -6 9 -12 9 -7 0 -67 26 -133 59 -66 32 -156 75 -200 96 -44 21 -120 56 -170
80 -49 23 -110 51 -135 63 -91 42 -91 46 -4 72 44 13 84 24 89 26 6 1 55 16
110 34 55 17 107 33 115 35 8 2 98 27 199 55 101 29 189 53 195 54 6 1 17 5
24 9 6 5 17 5 22 2 6 -3 10 -1 10 6 0 7 3 10 6 7 3 -4 20 -2 37 3 18 6 41 12
52 15 11 2 34 8 50 13 17 5 34 8 40 7 5 -1 27 -43 49 -92z m-1510 -371 c4 -5
11 -8 14 -9 13 -2 85 -35 270 -125 100 -49 187 -89 192 -89 6 0 10 -4 10 -10
0 -6 3 -9 8 -8 6 2 46 -17 142 -68 19 -10 41 -19 48 -20 7 -1 19 -7 27 -14 7
-6 64 -37 127 -69 62 -32 142 -74 178 -93 36 -19 110 -59 165 -88 55 -29 126
-68 158 -86 32 -19 60 -34 62 -34 2 0 34 -17 72 -39 37 -21 109 -60 158 -86
50 -26 96 -52 103 -58 6 -5 12 -6 12 -1 0 5 5 2 10 -6 5 -8 13 -16 17 -16 29
-5 53 -18 50 -27 -2 -8 -86 -39 -139 -52 -9 -2 -27 -9 -40 -16 -13 -7 -25 -12
-28 -11 -6 2 -38 -7 -65 -17 -30 -13 -178 -62 -195 -66 -8 -2 -42 -13 -75 -24
-33 -12 -107 -38 -165 -58 -58 -19 -159 -56 -225 -80 -66 -25 -124 -46 -130
-48 -5 -1 -17 -5 -25 -8 -38 -15 -256 -98 -265 -101 -5 -2 -23 -8 -38 -14 -16
-7 -30 -12 -33 -12 -2 0 -23 -8 -47 -19 -23 -10 -118 -50 -210 -89 -151 -63
-172 -69 -195 -59 -15 6 -29 14 -32 17 -3 3 -9 6 -15 7 -5 1 -107 43 -225 94
-118 50 -224 95 -235 99 -11 4 -31 12 -45 18 -44 19 -121 49 -275 107 -82 32
-190 73 -240 92 -49 19 -94 36 -100 38 -5 2 -20 6 -32 10 -12 4 -25 6 -29 5
-4 -1 -10 2 -13 7 -3 5 -28 16 -56 25 -45 15 -407 140 -445 154 -8 3 -17 6
-20 6 -3 0 -26 8 -51 19 -26 10 -50 15 -53 11 -4 -3 -4 0 -1 8 3 8 43 33 88
54 45 22 171 83 280 137 108 54 197 95 197 91 0 -4 4 -1 9 6 4 7 15 14 23 16
8 1 27 9 41 19 15 9 33 17 42 17 8 0 15 5 15 10 0 6 5 10 10 10 6 0 65 26 133
58 67 32 137 65 155 73 17 8 32 17 32 20 0 3 6 6 13 6 9 0 193 85 269 123 9 5
88 41 175 81 87 39 183 82 213 96 54 25 100 45 110 48 11 3 66 28 80 35 19 11
25 12 34 3z m2777 -961 c0 -4 2 -108 4 -232 2 -124 6 -324 9 -445 11 -499 19
-899 20 -1044 l1 -153 -55 -17 c-30 -9 -62 -16 -70 -16 -8 0 -17 -2 -20 -6 -3
-3 -27 -11 -55 -17 -40 -8 -127 -31 -210 -56 -75 -22 -74 -22 -236 80 -84 54
-156 101 -159 104 -3 3 -21 14 -40 24 -19 11 -59 35 -87 53 -29 18 -56 33 -59
32 -4 0 -10 3 -13 8 -5 8 -210 133 -386 236 -11 7 -43 27 -72 45 -30 17 -56
32 -58 32 -3 0 -22 11 -43 23 -20 13 -57 35 -82 49 -25 14 -85 48 -133 77 -49
28 -90 51 -93 51 -2 0 -32 17 -66 38 -35 20 -83 48 -108 60 -25 13 -58 31 -75
41 -16 9 -86 46 -155 82 -69 35 -128 68 -131 72 -3 5 -10 8 -15 7 -20 -4 -13
19 7 25 12 4 38 14 58 22 20 9 36 14 36 12 0 -2 11 4 25 14 13 9 32 17 42 17
10 0 18 5 18 11 0 5 5 7 10 4 6 -4 17 -2 23 4 7 5 67 31 132 56 66 25 129 50
140 55 11 5 63 26 115 45 52 20 102 38 110 42 8 3 17 7 20 7 3 1 30 11 60 22
75 29 168 63 340 124 80 28 152 54 160 57 8 3 23 8 33 10 10 1 31 10 47 18 16
8 33 15 39 15 5 0 22 5 38 12 15 7 33 13 38 13 6 1 17 5 25 8 29 11 279 97
284 97 2 0 17 5 33 12 15 6 33 12 38 14 6 1 66 21 135 44 69 23 132 43 140 45
8 2 16 4 18 4 1 1 5 1 10 2 4 0 12 4 17 8 9 7 55 21 70 22 3 0 23 8 46 17 45
19 79 25 80 14z m-5396 -66 c198 -59 318 -97 336 -106 10 -6 19 -8 19 -5 0 3
16 -1 35 -9 19 -8 35 -12 35 -9 0 3 6 1 13 -5 6 -6 14 -10 17 -10 3 0 25 -6
50 -13 55 -15 52 -14 70 -22 8 -3 33 -11 55 -17 22 -6 47 -14 55 -17 8 -3 20
-7 25 -9 6 -1 73 -23 150 -49 77 -26 147 -48 155 -50 15 -4 382 -131 458 -159
23 -8 42 -13 42 -10 0 2 12 -4 27 -13 15 -10 30 -17 33 -17 6 2 20 -2 90 -28
53 -19 84 -30 215 -78 33 -12 74 -27 90 -35 17 -7 53 -21 80 -30 28 -10 54
-22 59 -26 6 -5 16 -9 22 -9 7 0 25 -5 41 -12 15 -6 32 -12 37 -12 5 -1 11 -6
13 -13 2 -6 -62 -44 -146 -86 -83 -42 -151 -73 -151 -69 0 4 -4 2 -8 -4 -4 -5
-88 -51 -187 -101 -99 -50 -198 -101 -220 -113 -22 -12 -89 -48 -150 -80 -60
-32 -128 -68 -150 -80 -22 -13 -69 -39 -105 -58 -36 -20 -123 -69 -194 -109
-71 -40 -132 -73 -137 -73 -4 0 -9 -3 -11 -7 -1 -5 -24 -19 -50 -33 -27 -13
-48 -28 -48 -32 0 -3 -10 -10 -22 -14 -13 -3 -36 -16 -53 -28 -16 -11 -60 -36
-97 -56 -79 -41 -157 -99 -158 -118 0 -7 -6 -15 -14 -18 -8 -3 -16 -13 -19
-23 -4 -17 -34 -20 -67 -8 -27 10 -85 26 -110 31 -57 11 -236 59 -242 65 -4 3
0 26 9 51 13 38 15 98 14 395 -1 335 -11 1208 -15 1308 -2 56 -2 56 109 23z
m2752 -987 c48 -23 170 -81 270 -130 100 -49 186 -89 192 -89 6 0 11 -4 11 -8
0 -6 39 -26 70 -36 5 -2 30 -15 250 -129 130 -67 217 -113 365 -192 39 -21 93
-50 120 -64 28 -14 53 -30 57 -36 4 -5 8 -6 8 -2 0 5 12 0 28 -11 15 -10 65
-39 112 -64 47 -25 155 -84 240 -132 84 -47 158 -86 162 -86 4 0 8 -4 8 -10 0
-5 6 -10 14 -10 7 0 18 -6 24 -13 9 -10 -8 -18 -76 -36 -48 -13 -98 -29 -112
-34 -14 -5 -32 -11 -40 -12 -8 -2 -46 -13 -85 -25 -38 -11 -77 -23 -85 -25 -8
-2 -28 -9 -45 -15 -16 -6 -38 -13 -48 -15 -19 -4 -320 -101 -347 -112 -20 -8
-20 -8 -55 -18 -16 -4 -34 -10 -40 -14 -5 -3 -17 -6 -25 -8 -8 -1 -23 -6 -35
-11 -11 -5 -60 -24 -110 -41 -49 -18 -119 -44 -155 -58 -36 -14 -69 -26 -75
-27 -5 -2 -27 -10 -49 -19 -21 -9 -40 -17 -42 -17 -9 0 -315 -131 -409 -175
-148 -70 -133 -68 -209 -30 -36 19 -70 35 -74 35 -4 1 -32 13 -62 27 -81 38
-185 84 -262 117 -18 7 -64 26 -103 40 -38 15 -79 31 -90 36 -29 13 -184 72
-198 74 -7 2 -19 6 -27 9 -23 10 -243 89 -255 91 -18 4 -250 78 -270 87 -19 7
-93 30 -305 93 -47 13 -125 37 -174 51 l-89 27 29 17 c16 10 49 29 74 43 25
14 124 71 220 128 96 56 195 114 220 128 25 14 74 42 109 64 34 21 64 38 66
38 2 0 43 23 92 51 84 49 119 69 216 123 23 12 87 48 143 80 55 31 106 56 112
56 7 0 12 4 12 8 0 9 40 30 51 28 3 0 12 4 20 11 8 6 72 41 143 78 71 36 139
71 150 78 12 6 23 12 26 12 16 4 66 31 72 40 4 5 8 7 8 4 0 -3 35 11 78 32 42
21 80 39 84 39 3 0 46 -18 95 -41z m3130 -997 c-11 -21 -92 -197 -150 -327
-48 -108 -80 -177 -134 -295 -19 -41 -34 -75 -32 -75 1 0 -9 -20 -22 -45 -13
-25 -24 -47 -24 -50 -3 -9 -23 -54 -58 -130 -36 -79 -59 -130 -100 -220 -31
-70 -70 -155 -113 -248 -19 -41 -34 -75 -34 -77 0 -2 -22 -51 -50 -110 -27
-59 -50 -108 -50 -110 0 -1 -22 -49 -48 -106 -27 -57 -69 -149 -93 -205 l-44
-101 -105 106 c-58 59 -120 117 -138 131 -19 14 -55 41 -80 61 -65 50 -215
149 -287 190 -33 18 -61 37 -63 41 -2 4 -7 8 -12 8 -4 0 -57 27 -116 60 -59
33 -111 60 -116 60 -4 0 -8 5 -8 10 0 6 -5 10 -10 10 -6 0 -56 26 -113 59 -56
32 -122 70 -147 83 -25 14 -63 35 -85 48 -22 12 -65 36 -95 53 -30 16 -79 42
-107 58 -151 83 -181 99 -435 231 -21 11 -38 24 -38 30 0 5 4 7 8 4 5 -3 25 4
45 14 21 11 40 21 44 22 10 2 73 26 98 38 32 15 284 110 347 130 31 10 70 26
87 35 17 8 31 13 31 10 0 -3 14 1 30 10 17 9 30 13 30 10 0 -3 17 2 38 10 20
9 39 16 42 17 9 1 23 6 105 33 44 15 87 29 95 31 11 2 228 67 368 110 7 2 14
4 17 5 2 0 26 8 52 16 45 14 97 28 134 37 9 3 37 11 63 20 25 9 50 15 54 14 4
0 14 2 22 5 16 7 111 33 175 48 22 5 46 12 53 14 7 2 14 5 17 5 3 1 35 10 72
20 37 10 71 16 75 14 4 -3 8 -1 8 3 0 5 8 9 18 10 9 1 85 20 169 41 84 22 154
37 157 34 4 -3 6 0 6 7 0 7 4 10 9 7 4 -3 23 -1 42 5 19 6 45 12 59 15 14 2
32 7 40 10 8 3 29 8 45 10 17 2 71 14 120 27 99 25 138 31 132 19z m-6367 -67
c14 -4 41 -11 60 -15 108 -26 201 -50 250 -63 30 -9 58 -13 62 -11 5 3 8 1 8
-4 0 -5 6 -9 13 -10 21 -1 360 -90 487 -127 25 -8 77 -23 116 -35 39 -11 84
-23 99 -26 16 -3 33 -8 39 -12 6 -3 16 -7 21 -8 6 -1 64 -18 130 -39 66 -20
127 -38 135 -40 8 -2 114 -36 235 -76 121 -40 225 -74 230 -75 14 -3 156 -54
180 -64 31 -13 59 -23 72 -26 12 -2 162 -58 201 -74 25 -11 46 -20 122 -50 30
-11 64 -25 75 -30 11 -5 63 -28 115 -50 52 -23 99 -45 103 -49 5 -5 -20 -23
-55 -41 -35 -18 -88 -46 -118 -63 -30 -16 -93 -50 -140 -75 -47 -25 -97 -54
-112 -64 -16 -11 -28 -16 -28 -12 0 3 -6 2 -12 -4 -21 -17 -419 -242 -428
-242 -5 0 -10 -4 -12 -8 -3 -9 -167 -102 -178 -102 -5 0 -10 -4 -12 -8 -1 -5
-59 -41 -128 -81 -69 -41 -148 -89 -177 -107 -28 -19 -54 -34 -57 -34 -3 0
-25 -13 -49 -30 -25 -16 -50 -30 -56 -30 -6 0 -11 -3 -11 -7 0 -5 -24 -21 -53
-37 -47 -27 -94 -56 -244 -153 -28 -18 -56 -33 -62 -33 -11 0 -71 123 -71 146
0 8 -4 14 -10 14 -5 0 -10 5 -10 10 0 6 -67 162 -150 347 -82 186 -150 343
-150 350 0 7 -4 13 -8 13 -4 0 -14 17 -21 38 -8 20 -25 62 -39 92 -108 237
-252 567 -252 577 0 7 -4 13 -10 13 -5 0 -10 4 -10 10 0 10 -152 360 -170 392
-6 10 -10 20 -10 24 0 6 46 0 90 -11z m3219 -1108 c97 -49 195 -100 219 -113
23 -13 49 -24 57 -24 7 0 15 -4 17 -8 2 -5 50 -34 108 -64 58 -31 131 -69 163
-87 56 -31 112 -61 236 -128 35 -19 78 -43 95 -53 17 -10 53 -30 79 -45 27
-14 115 -66 196 -114 249 -150 355 -211 370 -211 5 0 11 -4 13 -8 2 -8 133
-75 148 -77 3 0 14 -6 26 -12 28 -16 172 -73 212 -85 38 -11 41 -23 7 -32 -13
-3 -63 -24 -110 -46 -47 -22 -88 -40 -89 -40 -2 0 -25 -10 -52 -22 -27 -12
-51 -23 -54 -23 -3 -1 -21 -8 -40 -17 -19 -8 -89 -39 -155 -68 -66 -29 -138
-60 -160 -70 -22 -10 -105 -46 -185 -80 -80 -34 -167 -72 -195 -85 -131 -59
-312 -135 -320 -135 -4 0 -16 -7 -25 -15 -9 -8 -25 -16 -36 -18 -10 -2 -30 -9
-44 -15 -14 -6 -153 -67 -309 -135 l-285 -125 -40 18 c-23 9 -63 28 -91 41
-27 12 -52 23 -55 24 -3 0 -25 10 -50 22 -25 11 -61 28 -80 36 -19 9 -66 29
-103 46 -38 17 -70 31 -72 31 -2 0 -32 13 -67 29 -35 16 -182 81 -328 145
-146 64 -272 120 -281 125 -9 5 -61 28 -115 51 -54 23 -137 60 -182 81 -46 22
-86 39 -88 39 -3 0 -56 23 -159 70 -22 10 -58 26 -80 35 -22 9 -58 26 -80 36
-22 10 -86 38 -143 63 l-103 43 28 19 c29 19 45 29 129 78 27 16 62 38 78 49
16 11 36 20 43 20 7 0 13 3 13 7 0 3 15 14 33 23 17 10 50 29 72 43 22 13 48
27 58 31 9 3 17 9 17 14 0 5 5 9 10 9 6 0 70 34 142 76 139 81 158 91 253 144
33 18 94 52 135 75 73 42 128 72 260 143 36 19 96 52 133 73 38 22 72 39 77
39 4 0 19 9 34 21 14 11 26 18 26 14 0 -4 15 2 33 13 92 57 450 230 464 225 9
-4 96 -47 192 -96z"/>
</g>
</svg>
