<svg id="Слой_1" data-name="Слой 1" xmlns="http://www.w3.org/2000/svg" viewBox="0 0 70.87 22.68"><defs><style>.cls-1{fill:#010101;}</style></defs><path class="cls-1" d="M18.09,18.85c-2.23-1.15-4.41-2.44-6.69-3.42a34.12,34.12,0,0,0-3.54-1.17c-1.2-.35-2.42-.66-3.64-.93l.51-.62L6,15.57,6.64,17l.32.72.16.35a.7.7,0,0,0,.13.23c.11.14.23.18.5.3l.72.32,1.43.63,1.43.64.72.31a1.28,1.28,0,0,0,.59.14,1.44,1.44,0,0,0,.6-.13L14,20.2l1.43-.63L16.83,19l.72-.31a1.22,1.22,0,0,0,.52-.31.7.7,0,0,0,.14-.23l.17-.36L18.7,17l.65-1.43,1.3-2.85.39.48c-1.22.26-2.44.58-3.65.93a35.11,35.11,0,0,0-3.54,1.21c-1.14.49-2.24,1.08-3.36,1.66s-2.21,1.21-3.31,1.8a.25.25,0,0,1-.34-.09.25.25,0,0,1,.08-.32c1-.73,2.13-1.37,3.23-2a34.08,34.08,0,0,1,3.42-1.71,49,49,0,0,1,7.32-2.15.35.35,0,0,1,.42.26.34.34,0,0,1,0,.22h0L20,15.9l-.63,1.43-.32.72-.16.36a1.61,1.61,0,0,1-1.05.94l-.71.32-1.44.64-1.43.63-.72.32a2.33,2.33,0,0,1-.92.2,2.06,2.06,0,0,1-.92-.2L11,21l-1.44-.62L8.13,19.7l-.72-.31a2,2,0,0,1-.82-.52,1.94,1.94,0,0,1-.27-.44l-.16-.36-.32-.71-.65-1.43L3.91,13.08a.45.45,0,0,1,.22-.6.45.45,0,0,1,.28,0,44.32,44.32,0,0,1,7.33,2.18,37.92,37.92,0,0,1,6.61,3.8.24.24,0,0,1,.06.34.25.25,0,0,1-.31.08Z"/><path class="cls-1" d="M6.92,13.35a16.42,16.42,0,0,1,2.92-1.83c1-.53,2-1.08,3.09-1.57s2.14-.88,3.22-1.27,2.17-.75,3.28-1.08a.45.45,0,0,1,.56.3A.49.49,0,0,1,20,8h0c0,.86,0,1.73,0,2.59a14.23,14.23,0,0,1-.19,2.6.25.25,0,0,1-.3.19.25.25,0,0,1-.19-.19,14.23,14.23,0,0,1-.19-2.6c0-.86,0-1.73,0-2.59l.57.43c-2.17.64-4.36,1.34-6.45,2.18a24.68,24.68,0,0,0-3.05,1.51,28,28,0,0,1-3,1.61.24.24,0,0,1-.32-.12A.23.23,0,0,1,6.92,13.35Z"/><path class="cls-1" d="M5.48,13.22A45,45,0,0,1,5.38,8a.35.35,0,0,1,.34-.35h.11a62.19,62.19,0,0,1,6.55,2.2,33.36,33.36,0,0,1,3.11,1.55,15.65,15.65,0,0,1,2.88,1.91.25.25,0,0,1,0,.35.23.23,0,0,1-.27.06,24.82,24.82,0,0,1-3-1.53c-1-.54-2-1.08-3-1.53C10,9.8,7.79,9.06,5.63,8.36L6.08,8A42.82,42.82,0,0,1,6,13.22a.24.24,0,0,1-.27.21A.24.24,0,0,1,5.48,13.22Z"/><path class="cls-1" d="M17.91,8.72a12.8,12.8,0,0,1-2.24-1.07c-.72-.4-1.46-.75-2.21-1.08a17.46,17.46,0,0,0-2.28-.86c-.77-.24-1.57-.46-2.36-.66l.52-.24c-.31.64-.6,1.28-.92,1.92a9.07,9.07,0,0,1-1.1,1.83.26.26,0,0,1-.36,0,.24.24,0,0,1-.08-.24,8.7,8.7,0,0,1,.73-2c.29-.64.61-1.28.92-1.92h0A.44.44,0,0,1,9,4.18c.81.23,1.61.47,2.4.74a14,14,0,0,1,2.33,1c.75.37,1.48.76,2.23,1.12a9.67,9.67,0,0,1,2.14,1.27.25.25,0,0,1,0,.35A.28.28,0,0,1,17.91,8.72Z"/><path class="cls-1" d="M18,8.56a10.05,10.05,0,0,1-1-1.87C16.65,6,16.36,5.4,16,4.77l.41.19c-.78.22-1.57.48-2.34.74a15.11,15.11,0,0,0-2.24.93L9.66,7.74a12.15,12.15,0,0,1-2.28,1,.26.26,0,0,1-.31-.19.26.26,0,0,1,.07-.24,9.8,9.8,0,0,1,2.1-1.36c.74-.38,1.48-.75,2.24-1.1a16.51,16.51,0,0,1,2.37-.9c.8-.26,1.6-.46,2.41-.66h0a.34.34,0,0,1,.39.19c.29.65.61,1.28.93,1.91a10.6,10.6,0,0,1,.81,2,.26.26,0,0,1-.18.31A.27.27,0,0,1,18,8.56Z"/><path class="cls-1" d="M9.83,4.81a3.22,3.22,0,0,1,1.11-1.54,6.88,6.88,0,0,1,1.52-1.2.39.39,0,0,1,.35,0h0a6.81,6.81,0,0,1,1.59,1.12,4.91,4.91,0,0,1,.64.72,1.68,1.68,0,0,1,.39.9.26.26,0,0,1-.25.28.24.24,0,0,1-.14,0l0,0a2.23,2.23,0,0,1-.64-.58l-.59-.63a7.29,7.29,0,0,0-1.33-1h.37a6.51,6.51,0,0,0-1.41,1A14.1,14.1,0,0,1,10.26,5l0,0a.24.24,0,0,1-.35,0A.28.28,0,0,1,9.83,4.81Z"/><path class="cls-1" d="M29.06.48c.42,0,.63.27.63.83V2.68q0,2.85,1.77,17.14v.35c0,.69-.23,1-.68,1s-.61-.27-.61-.61v-.48q0-1.29-1.11-9.13c-2,.12-3,.27-3,.48l.07.08v.05q.28,4.52.28,8.23v1.75c0,.66-.25,1-.76,1-.33,0-.52-.26-.54-.76V20.17q0-4.35-.29-8.43h-.13a.91.91,0,0,1-.83-.48v-.35a1.09,1.09,0,0,1,.83-.54,87.22,87.22,0,0,0-1.11-8.85c0-.36.28-.57.83-.63.36,0,.64,1.06.83,3.16q.27,1.4.74,5.9h.08L29,9.67a74.87,74.87,0,0,1-.69-8C28.3.86,28.55.48,29.06.48Z"/><path class="cls-1" d="M39.58.48c.29,0,.47.25.52.65q-.78,4.73-1.5,10.35a51.54,51.54,0,0,0-1.33,7l-.06,2.16a.65.65,0,0,1-.72.39c-.51-.05-1-1.53-1.31-4.45q-.54-3.06-1.83-12.41L32.83,1.5a.72.72,0,0,1,.74-.5c.46,0,.77,1,.91,2.72q.48,2.4,1.75,11.75l.06.06h.07a132.92,132.92,0,0,0,2.31-13.9C38.74.81,39,.42,39.58.48Z"/><path class="cls-1" d="M44,2.26q2.93,0,4.71,8.17c.16,1.14.27,2.3.32,3.49,0,3.53-.93,5.91-2.81,7.15a5.49,5.49,0,0,1-1.72.41c-1.54,0-2.56-1.24-3.07-3.7A13,13,0,0,1,41,14.49v-.35A37.43,37.43,0,0,1,42.78,3.31V3.09L42.7,3C42.86,2.52,43.28,2.26,44,2.26Zm.09,1.29a32.3,32.3,0,0,0-1.72,10.59v.19q0,4.81,1.59,5.69l.54.15h.22q1.92,0,2.72-3.44a8.19,8.19,0,0,0,.22-2V13.44A16.56,16.56,0,0,0,44.9,4.05,1.49,1.49,0,0,0,44.07,3.55Z"/><path class="cls-1" d="M55.2.15h.09c1,0,1.44.23,1.44.68q0,.39-.57.72l-.68-.09h-.95V3.57a128.43,128.43,0,0,0,.76,15v.28a2.31,2.31,0,0,1-1.5,2.48l-.57.07c-1.31,0-2.17-1.1-2.59-3.31l-.16-.74c.13-.42.37-.63.7-.63s.66.61.83,1.85A2.48,2.48,0,0,0,53,20h.46c.33-.16.5-.54.5-1.15v-.22q-.63-6.54-.63-8-.14-2.52-.13-6.77V1.65h-.07l-1.65.14h-.2c-.55-.06-.83-.29-.83-.68A.73.73,0,0,1,51.3.5h.35Z"/><path class="cls-1" d="M64.11.61q.33,0,.63.63l-.06.33q1.89,12.52,2.66,19.08c-.15.41-.37.61-.68.61-.51,0-.81-1.09-.91-3.27l-.24-1.72-1.2.07a30.52,30.52,0,0,1-3.42-.29q-1.62,5.52-2.2,5.52h0c-.46-.13-.69-.37-.69-.7q1.75-4.32,3.83-14.77C62.38,4,62.92,2.21,63.42.89A1,1,0,0,1,64.11.61ZM61.24,14.75a10.87,10.87,0,0,0,2.52.28h1.18a.5.5,0,0,0,.41-.2L63.76,4.25h0A21.52,21.52,0,0,0,62.46,9Z"/></svg>