<svg xmlns="http://www.w3.org/2000/svg" viewBox="0 0 725.48 274.7"><g id="Слой_9" data-name="Слой 9"><path d="M168.65,226.42a33.12,33.12,0,0,1-10.31-2.31c-1.58-.6-3.1-1.31-4.61-2s-3-1.47-4.43-2.28c-2.92-1.59-5.72-3.38-8.58-5.07s-5.75-3.32-8.65-4.94c-11.62-6.38-23.33-12.63-35.3-17.89-5.94-2.58-12.12-4.84-18.37-7S65.83,180.83,59.47,179C46.76,175.25,33.85,171.9,21,169l4.8-5.95L53,224.25l-2.09-2.06,59.94,26.5H107.7l60.11-26.12L166,224.43l27.66-60.94,3.74,4.62c-12.94,2.78-25.91,6-38.69,9.53s-25.54,7.51-37.65,12.55-24,11.32-35.63,17.7S62.15,221,50.82,227.94h0a2.16,2.16,0,0,1-2.29-3.66q17-10.84,34.41-20.8c11.67-6.6,23.5-13,35.87-18.45s25.28-9.48,38.16-13.33,25.85-7.18,39-10.12a3.32,3.32,0,0,1,3.75,4.58l0,0-27.09,61.21a3.59,3.59,0,0,1-1.83,1.83l0,0L110.81,255.8a3.8,3.8,0,0,1-3.08,0l0,0h0l-60.1-26.14a4,4,0,0,1-2.07-2v0l-27.57-61h0a4.27,4.27,0,0,1,2.13-5.66,4.21,4.21,0,0,1,2.67-.29c13.22,2.87,26.22,6.08,39.2,9.73s25.81,7.65,38.51,13c6.29,2.66,12.37,5.64,18.41,8.66s11.93,6.3,17.79,9.59l8.78,5c2.94,1.64,5.9,3.22,8.73,5a67.78,67.78,0,0,1,8.14,6A30.38,30.38,0,0,1,169,225.8a.42.42,0,0,1-.17.57A.36.36,0,0,1,168.65,226.42Z"/><path d="M50.28,171.52a9.48,9.48,0,0,1,.53-3.47,7.17,7.17,0,0,1,1.3-2.23,10.76,10.76,0,0,1,3.63-2.76c2.71-1.35,5.19-3.1,7.83-4.56q7.86-4.5,15.89-8.74c5.34-2.84,10.73-5.58,16.17-8.28s10.93-5.3,16.58-7.67,11.28-4.54,17-6.62,11.39-4.07,17.12-6c11.45-3.83,22.95-7.36,34.59-10.65l.08,0a3.32,3.32,0,0,1,4.08,2.28,3.1,3.1,0,0,1,.12,1c-.12,9.08-.36,18.17-.53,27.25l-.28,13.63L184,168.29a2.16,2.16,0,0,1-4.32,0l-.37-13.63L179,141c-.17-9.08-.4-18.17-.53-27.25l4.28,3.2c-11.38,3.59-22.75,7.43-34,11.41s-22.47,8.22-33.28,13c-5.38,2.37-10.71,5-16,7.75S89,154.78,83.82,157.71s-10.33,6-15.48,9l-3.89,2.23a39.4,39.4,0,0,0-3.81,2.35,10.94,10.94,0,0,1-4.1,1.86,6.92,6.92,0,0,1-2.56.11,9.69,9.69,0,0,1-3.31-1.12A.73.73,0,0,1,50.28,171.52Z"/><path d="M36.31,168.29a8.79,8.79,0,0,1-3.45-3.41,9.49,9.49,0,0,1-1-3.41,25.73,25.73,0,0,1,.06-3.4c.07-1.14,0-2.27,0-3.41-.08-4.54,0-9.08.06-13.63l.37-27.25v-.12a4.26,4.26,0,0,1,5.49-4c11.58,3.58,23,7.37,34.39,11.41q8.53,3,17,6.29c5.64,2.19,11.25,4.44,16.82,6.94s11,5.23,16.36,8,10.62,5.78,15.86,8.78c10.45,6,20.74,12.27,30.86,18.87a2.16,2.16,0,0,1-2.25,3.69h0c-10.39-5.93-20.87-11.78-31.47-17.31q-8-4.17-16-8.08c-5.35-2.62-10.75-5.13-16.2-7.39C92.3,136.34,81,132.36,69.69,128.56S46.9,121.2,35.46,117.89l5.5-4.11L41.33,141c0,4.55.14,9.09.05,13.63,0,1.14-.05,2.27,0,3.41a24.13,24.13,0,0,1,.07,3.4,9.7,9.7,0,0,1-1,3.41A8.86,8.86,0,0,1,37,168.29.71.71,0,0,1,36.31,168.29Z"/><path d="M165.6,119.07l-.39.3-.36.22-.7.44-.63.32-.59.23a4.93,4.93,0,0,1-2,.33,6,6,0,0,1-3.12-1,62.77,62.77,0,0,0-5.69-3.11l-11.4-6.2q-11.37-6.23-23-11.89c-1.94-.93-3.87-1.87-5.82-2.76L109,94.57l-2.88-1.24c-3.88-1.6-7.92-3-12-4.42C86,86.17,77.69,83.65,69.43,81.27l3.94-1.82c-3.32,6.65-6.72,13.26-10.1,19.89S56.45,112.56,53,119.14a2.16,2.16,0,0,1-3.9-1.86q4.44-10.25,9-20.43c3-6.79,6.06-13.59,9.16-20.35A3.34,3.34,0,0,1,71,74.65l.11,0c8.53,2.07,16.92,4.36,25.33,6.95,4.19,1.3,8.37,2.68,12.56,4.28l3.14,1.26,3,1.31c2,.87,4,1.77,6,2.68q6,2.75,11.87,5.6c3.93,1.89,7.87,3.78,11.78,5.71s7.81,3.88,11.66,5.91c1,.51,1.92,1.05,2.87,1.58.48.26.94.54,1.43.78l1.5.67a6.06,6.06,0,0,1,2.6,2.07,4.61,4.61,0,0,1,.83,1.88,6.19,6.19,0,0,1,.13.62l.08.7v1.25l0,.5A.89.89,0,0,1,165.6,119.07Z"/><path d="M167.14,118.37a10.8,10.8,0,0,1-2.71-.25,5.52,5.52,0,0,1-1.76-.71,6,6,0,0,1-2-2.15c-.42-.82-.69-1.73-1.08-2.57s-.83-1.67-1.24-2.5c-1.65-3.33-3.16-6.73-4.72-10.1-3.09-6.76-6.13-13.55-9.28-20.28l4.89,2.27c-8.31,2.1-16.66,4.4-24.85,6.93-4.1,1.27-8.17,2.6-12.1,4.1l-2.92,1.16-3,1.26-5.9,2.6c-7.86,3.54-15.67,7.27-23.46,11s-15.58,7.61-23.33,11.48h0a2.16,2.16,0,0,1-2.07-3.79q11.24-6.7,22.66-13T97.53,91.7c2-1,3.93-1.93,5.93-2.85l3-1.38,3.09-1.34c4.14-1.7,8.29-3.19,12.45-4.59,8.34-2.8,16.68-5.31,25.15-7.67A4.16,4.16,0,0,1,152,76.05l0,.09c3.27,6.68,6.65,13.31,10,20,1.66,3.33,3.35,6.64,4.91,10,.39.84.76,1.7,1.16,2.53s.95,1.61,1.33,2.46a6,6,0,0,1,.44,2.88,5.66,5.66,0,0,1-.55,1.81,10.93,10.93,0,0,1-1.5,2.26A.89.89,0,0,1,167.14,118.37Z"/><path d="M81.66,81c-2.5-2.39-2.48-3.49-2.36-4.43A2.3,2.3,0,0,1,80,75.49a5.85,5.85,0,0,0,.8-1,35.87,35.87,0,0,1,3.08-4,87,87,0,0,1,7-7.19,73.33,73.33,0,0,1,7.89-6.35c1.37-1,2.78-1.89,4.21-2.76s2.84-1.7,4.51-2.54h0l.14-.07a3.7,3.7,0,0,1,3.37.07c1.64.9,3,1.75,4.4,2.69s2.74,1.94,4,3A68.58,68.58,0,0,1,126.87,64a83.71,83.71,0,0,1,6.32,7.64c1,1.34,1.89,2.7,2.77,4.1s1.67,2.81,2.46,4.41a2.16,2.16,0,0,1-3.72,2.18l-.07-.1c-.79-1.16-1.77-2.43-2.74-3.6s-2-2.35-3-3.49a85,85,0,0,0-6.56-6.46,70.48,70.48,0,0,0-7.17-5.57c-1.24-.86-2.52-1.68-3.81-2.45s-2.65-1.56-3.83-2.15H111c-1.15.64-2.51,1.48-3.73,2.31s-2.46,1.73-3.65,2.66a65.56,65.56,0,0,0-6.69,6,86.94,86.94,0,0,0-5.83,6.91c-.9,1.19-1.76,2.41-2.7,3.56-.54.53-.57,1.4-1.23,1.82s-1.59.64-4.87-.36l-.09,0A1.37,1.37,0,0,1,81.66,81Z"/><path d="M286.21,28q6.63,0,6.63,8.69V51.07q0,30,18.53,180v3.66q0,10.74-7.09,10.75-6.4-.93-6.41-6.41v-5q0-13.5-11.66-95.84-31.57,1.84-31.57,5l.69.92v.46q3,47.34,3,86.46v18.29q0,10.53-8,10.53-5.27,0-5.72-8V234.74q0-45.75-3-88.52h-1.37a9.52,9.52,0,0,1-8.69-5v-3.66q3.89-5.49,8.69-5.72,0-17.39-11.66-92.87,0-5.71,8.69-6.63,5.72,0,8.69,33.17,3,14.64,7.78,62h.91l30.88-3q-7.32-58.78-7.32-84.4Q278.2,28,286.21,28Z"/><path d="M396.68,28q4.57.45,5.49,6.86-8.24,49.64-15.78,108.64-11.44,46.67-13.95,73l-.69,22.64q-2.06,4.57-7.55,4.12-8-.69-13.72-46.66-5.72-32.25-19.21-130.38l-5.49-27.44q2.28-5.49,7.77-5.27,7.32.69,9.61,28.6,5,25.15,18.3,123.28l.68.69h.69q9.62-35.46,24.25-145.93Q388.22,27.05,396.68,28Z"/><path d="M442.89,46.72q30.64,0,49.4,85.77,2.52,17.85,3.43,36.6,0,55.59-29.5,75-11.67,4.35-18.07,4.35-24.25,0-32.25-38.88Q412,194.71,412,175v-3.66q0-53.29,18.3-113.68V55.41l-.92-.68Q431.91,46.72,442.89,46.72Zm.91,13.5q-18.07,52.61-18.07,111.16v2.06q0,50.55,16.7,59.69l5.72,1.61h2.28q20.13,0,28.59-36.14a88,88,0,0,0,2.29-21.28V164.06q0-55.35-28.82-98.58Q447,60.22,443.8,60.22Z"/><path d="M560.68,24.53h.92q15.09,0,15.09,7.09,0,4.12-5.94,7.55l-7.1-.91H553.59V60.44q0,89.67,8,157.14v3q0,20.59-15.79,26.08l-5.94.69q-20.6,0-27.22-34.77l-1.6-7.78q2.05-6.63,7.32-6.63,5.94,0,8.69,19.44,4.34,12.58,10.75,15.78h4.8q5.26-2.51,5.26-12.12V219q-6.63-68.61-6.63-84.17-1.38-26.53-1.37-71.13V40.32h-.69L521.8,41.69h-2.06q-8.7-.91-8.69-7.09,1.14-6.41,8.69-6.41h3.66Z"/><path d="M654.23,29.34q3.43,0,6.63,6.63l-.68,3.43q19.89,131.52,27.9,200.37-2.28,6.39-7.09,6.4-8,0-9.6-34.31l-2.52-18.07-12.58.69q-11.89,0-35.91-3-16.93,57.87-23.1,57.86h-.46q-7.32-2.06-7.32-7.31Q608,196.76,629.76,87q9.38-33.86,17.15-54.67A10.48,10.48,0,0,1,654.23,29.34ZM624,177.78a114.55,114.55,0,0,0,26.53,3h12.35a5.65,5.65,0,0,0,4.35-2.06L650.57,67.53h-.46q-4.58,7.09-13.26,49.87Z"/></g></svg>