<?xml version="1.0" encoding="utf-8"?>
<!-- Generator: Adobe Illustrator 25.2.3, SVG Export Plug-In . SVG Version: 6.00 Build 0)  -->
<svg version="1.1" xmlns="http://www.w3.org/2000/svg" xmlns:xlink="http://www.w3.org/1999/xlink" x="0px" y="0px"
	 viewBox="0 0 1719.78 649.83" style="enable-background:new 0 0 1719.78 649.83;" xml:space="preserve">
<style type="text/css">
	.st0{display:none;}
	.st1{display:inline;}
	.st2{fill:#FFFFFF;}
	.st3{display:inline;fill:none;stroke:#FFFFFF;stroke-width:20;stroke-linecap:round;stroke-linejoin:round;stroke-miterlimit:10;}
	.st4{display:inline;fill:none;stroke:#FFFFFF;stroke-miterlimit:10;}
	.st5{display:inline;fill:none;stroke:#FFFFFF;stroke-width:30;stroke-linecap:round;stroke-linejoin:round;stroke-miterlimit:10;}
	.st6{fill:none;stroke:#FFFFFF;stroke-width:30;stroke-linecap:round;stroke-linejoin:round;stroke-miterlimit:10;}
	.st7{fill:none;stroke:#FFFFFF;stroke-width:50;stroke-linecap:round;stroke-linejoin:round;stroke-miterlimit:10;}
	.st8{fill:none;stroke:#FFFFFF;stroke-width:30;stroke-linejoin:bevel;stroke-miterlimit:10;}
	.st9{fill:none;stroke:#FFFFFF;stroke-width:50;stroke-linecap:square;stroke-linejoin:bevel;stroke-miterlimit:10;}
	.st10{fill:none;stroke:#FFFFFF;stroke-width:30;stroke-linecap:square;stroke-linejoin:bevel;stroke-miterlimit:10;}
	.st11{fill:none;stroke:#FFFFFF;stroke-width:30;stroke-linejoin:round;stroke-miterlimit:10;}
	.st12{fill:none;stroke:#333333;stroke-width:16.5603;stroke-linejoin:bevel;stroke-miterlimit:10;}
	.st13{fill:none;stroke:#333333;stroke-width:27.6006;stroke-linecap:square;stroke-linejoin:bevel;stroke-miterlimit:10;}
	.st14{fill:none;stroke:#333333;stroke-width:16.5603;stroke-linecap:square;stroke-linejoin:bevel;stroke-miterlimit:10;}
	.st15{fill:none;stroke:#333333;stroke-width:16.5603;stroke-linejoin:round;stroke-miterlimit:10;}
	.st16{fill:#333333;}
	.st17{fill:#5B5B5B;}
	.st18{fill:none;stroke:#FF3F5A;stroke-width:50;stroke-linecap:round;stroke-linejoin:round;stroke-miterlimit:10;}
	.st19{fill:none;stroke:#000000;stroke-width:20.5151;stroke-linecap:round;stroke-linejoin:round;stroke-miterlimit:10;}
	.st20{fill:none;stroke:#000000;stroke-width:20;stroke-linecap:square;stroke-miterlimit:10;}
	.st21{fill:none;stroke:#000000;stroke-width:15;stroke-linecap:square;stroke-miterlimit:10;}
	.st22{fill:none;stroke:#000000;stroke-width:8;stroke-linecap:square;stroke-miterlimit:10;}
	.st23{fill:none;stroke:#000000;stroke-width:19.98;stroke-linecap:square;stroke-linejoin:bevel;stroke-miterlimit:10;}
	.st24{fill:none;stroke:#000000;stroke-width:10;stroke-linecap:square;stroke-linejoin:bevel;stroke-miterlimit:10;}
	.st25{fill:none;stroke:#000000;stroke-width:8;stroke-linecap:square;stroke-linejoin:bevel;stroke-miterlimit:10;}
	.st26{fill:none;stroke:#000000;stroke-miterlimit:10;}
</style>
<g id="Слой_1" class="st0">
</g>
<g id="Слой_2" class="st0">
</g>
<g id="Слой_3" class="st0">
</g>
<g id="Слой_4">
</g>
<g id="Слой_5">
</g>
<g id="Слой_6">
</g>
<g id="Слой_7">
	<g>
		<g>
			<path d="M518.49,436.66c6.88,0,12.14,2.3,15.82,6.88c3.66,4.59,5.5,10.78,5.5,18.57c0,14.21-2.75,25.34-8.25,33.35
				c-5.5,8.03-13.75,13.87-24.75,17.54c-21.09,6.88-43.56,10.31-67.39,10.31c-20.18,0-39.19-2.75-57.07-8.25
				c-13.3,21.55-27.97,43.78-44.01,66.7c-18.34,26.13-34.04,44.01-47.1,53.64c-13.06,9.63-27.85,14.44-44.35,14.44
				c-18.34,0-32.21-7.1-41.6-21.32c-9.4-14.2-15.25-37.58-17.54-70.14l-3.44-50.2c-14.21,38.51-26.94,67.85-38.16,88.02
				c-11.24,20.18-22.47,34.16-33.69,41.95c-11.24,7.8-24.41,11.69-39.54,11.69c-18.8,0-33.59-7.33-44.35-22
				C17.76,613.16,11,590,8.25,558.37C2.75,494.19,0,438.03,0,389.9v-24.07c0.45-15.13,4.58-25.67,12.38-31.63
				c7.79-5.95,19.48-8.94,35.07-8.94c11.92,0,20.74,2.64,26.48,7.91c5.73,5.28,8.6,14.1,8.6,26.48c0,52.72,3.2,121.26,9.63,205.61
				c31.17-65.55,59.83-133.85,85.96-204.92c5.04-13.75,11.11-23.04,18.22-27.85c7.1-4.81,15.7-7.22,25.79-7.22
				c12.38,0,20.98,2.52,25.79,7.56c4.81,5.05,7.22,13.99,7.22,26.82c0,52.72,3.2,121.26,9.63,205.61
				c27.51-40.8,48.14-73.34,61.89-97.65c-6.88-13.29-10.31-29.11-10.31-47.45c0-15.58,3.44-30.71,10.31-45.39
				c6.88-14.67,16.27-26.58,28.19-35.76c11.92-9.16,25.44-13.75,40.57-13.75c13.29,0,24.07,4.71,32.32,14.1
				c8.25,9.4,12.38,23.04,12.38,40.91c0,20.63-5.5,44.25-16.5,70.83c17.42-0.91,40.57-4.35,69.45-10.31l18.56-3.44
				C512.99,436.89,515.27,436.66,518.49,436.66z"/>
			<path d="M844.43,444.22c3.2,5.96,4.81,13.53,4.81,22.69c0,22.01-6.65,35.07-19.94,39.2c-27.51,9.63-57.76,15.13-90.77,16.5
				c-8.71,38.51-25.9,69.35-51.57,92.49c-25.68,23.15-54.79,34.73-87.33,34.73c-27.51,0-51.01-6.64-70.48-19.94
				c-19.49-13.29-34.27-30.94-44.35-52.95c-10.09-22-15.13-45.84-15.13-71.51c0-34.83,6.64-65.9,19.94-93.18
				c13.29-27.27,31.63-48.59,55.01-63.95c23.38-15.35,49.27-23.04,77.7-23.04c34.83,0,62.92,12.03,84.24,36.1
				c21.32,24.07,33.8,53.75,37.48,89.05c21.54-1.37,47.21-5.95,77.01-13.75c3.66-0.91,6.88-1.37,9.63-1.37
				C836.63,435.28,841.22,438.27,844.43,444.22z M643.29,559.06c10.77-11.92,17.99-29.11,21.66-51.57
				c-14.22-9.63-25.1-22.23-32.66-37.82c-7.56-15.58-11.35-32.08-11.35-49.51c0-7.33,0.69-14.67,2.07-22.01h-3.44
				c-18.34,0-33.59,8.83-45.73,26.48c-12.15,17.65-18.23,42.53-18.23,74.61c0,25.22,4.92,44.47,14.79,57.76
				c9.85,13.3,21.42,19.94,34.72,19.94C619.79,576.94,632.51,570.98,643.29,559.06z"/>
			<path d="M1154.55,444.22c3.2,5.96,4.81,13.53,4.81,22.69c0,22.01-6.65,35.07-19.94,39.2c-27.51,9.63-57.76,15.13-90.77,16.5
				c-8.71,38.51-25.9,69.35-51.57,92.49c-25.68,23.15-54.79,34.73-87.33,34.73c-27.51,0-51.01-6.64-70.48-19.94
				c-19.49-13.29-34.27-30.94-44.35-52.95c-10.09-22-15.13-45.84-15.13-71.51c0-34.83,6.64-65.9,19.94-93.18
				c13.29-27.27,31.63-48.59,55.01-63.95c23.38-15.35,49.27-23.04,77.7-23.04c34.83,0,62.92,12.03,84.24,36.1
				c21.32,24.07,33.8,53.75,37.48,89.05c21.54-1.37,47.21-5.95,77.01-13.75c3.66-0.91,6.88-1.37,9.63-1.37
				C1146.75,435.28,1151.34,438.27,1154.55,444.22z M953.41,559.06c10.77-11.92,17.99-29.11,21.66-51.57
				c-14.22-9.63-25.1-22.23-32.66-37.82c-7.56-15.58-11.35-32.08-11.35-49.51c0-7.33,0.69-14.67,2.06-22.01h-3.44
				c-18.34,0-33.59,8.83-45.73,26.48c-12.15,17.65-18.23,42.53-18.23,74.61c0,25.22,4.92,44.47,14.79,57.76
				c9.85,13.3,21.42,19.94,34.72,19.94C929.91,576.94,942.63,570.98,953.41,559.06z"/>
			<path d="M1504.89,501.29c3.44,5.5,5.16,13.07,5.16,22.69c0,18.34-4.36,32.56-13.06,42.63c-18.8,22.93-39.43,42.53-61.89,58.79
				c-22.47,16.28-44.7,24.41-66.7,24.41c-34.84,0-61.43-20.39-79.76-61.2c-19.26,24.3-36.1,40.57-50.54,48.82
				c-14.44,8.25-31.29,12.38-50.54,12.38c-27.97,0-51-10.42-69.11-31.29c-18.12-20.85-27.16-48.02-27.16-81.49
				c0-36.67,7.79-70.71,23.38-102.12c15.58-31.4,37.01-57.08,64.3-77.02c27.27-19.94,57.87-31.74,91.8-35.41
				c8.7-88.93,25.32-164.92,49.85-227.95C1345.12,31.53,1377.34,0,1417.22,0c19.71,0,36.1,8.94,49.17,26.82
				c13.07,17.88,19.6,44.93,19.6,81.14c0,51.35-12.61,111.4-37.82,180.16c-25.22,68.76-58.91,139.37-101.08,211.8
				c1.83,26.59,5.84,45.62,12.03,57.08c6.19,11.46,14.1,17.19,23.72,17.19c12.38,0,24.98-5.5,37.82-16.5
				c12.83-11,30.02-29.33,51.57-55.01c5.5-6.41,11.69-9.63,18.57-9.63C1496.75,493.04,1501.46,495.79,1504.89,501.29z
				 M1237.74,569.72c8.7-7.1,19.71-20.29,33.01-39.54c-4.59-24.76-6.88-52.49-6.88-83.21c0-11,0.45-28.88,1.37-53.64
				c-25.22,7.8-46.19,24.65-62.92,50.54c-16.74,25.9-25.1,54.67-25.1,86.3c0,33.47,11.45,50.2,34.38,50.2
				C1220.32,580.37,1229.03,576.83,1237.74,569.72z M1383.52,113.81c-8.71,30.94-16.16,71.41-22.35,121.37
				c-6.19,49.97-10.66,102.23-13.41,156.78c51.34-111.85,77.02-201.71,77.02-269.56c0-17.42-1.49-30.94-4.47-40.57
				c-2.99-9.63-6.53-14.44-10.66-14.44C1400.94,67.39,1392.23,82.86,1383.52,113.81z"/>
			<path d="M1501.46,629.54c-19.03-13.52-33.35-31.29-42.98-53.29c-9.63-22-14.44-45.61-14.44-70.83c0-34.83,6.53-65.9,19.6-93.18
				c13.06-27.27,30.83-48.59,53.29-63.95c22.46-15.35,47.68-23.04,75.64-23.04c27.05,0,50.2,6.77,69.45,20.29
				c19.25,13.53,33.69,31.29,43.32,53.29c9.63,22,14.44,45.62,14.44,70.83c0,34.84-6.65,65.91-19.94,93.18
				c-13.3,27.28-31.29,48.6-53.98,63.95c-22.69,15.36-47.79,23.04-75.3,23.04C1543.51,649.83,1520.47,643.07,1501.46,629.54z
				 M1617.67,550.12c10.77-16.95,16.16-41.71,16.16-74.27c0-25.21-4.59-44.24-13.75-57.08c-9.18-12.83-20.18-19.25-33.01-19.25
				c-16.5,0-30.15,8.37-40.92,25.1c-10.77,16.74-16.16,41.6-16.16,74.61c0,26.13,4.58,45.38,13.75,57.76
				c9.17,12.38,20.63,18.57,34.38,18.57C1593.71,575.56,1606.89,567.08,1617.67,550.12z"/>
		</g>
	</g>
</g>
</svg>
